<?xml version="1.0" encoding="UTF-8"?>
<svg width="22px" height="27px" viewBox="0 0 22 27" version="1.1" xmlns="http://www.w3.org/2000/svg" xmlns:xlink="http://www.w3.org/1999/xlink">
    <!-- Generator: Sketch 51.1 (57501) - http://www.bohemiancoding.com/sketch -->
    <title>logobug-white</title>
    <desc>Created with Sketch.</desc>
    <defs></defs>
    <g id="Symbols" stroke="none" stroke-width="1" fill="none" fill-rule="evenodd">
        <g id="mobile/footer" transform="translate(-21.000000, -29.000000)" fill="#FFFFFF" fill-rule="nonzero">
            <g id="logobug-white" transform="translate(21.000000, 29.000000)">
                <polygon id="Shape" points="6 5.9175 6 20.6025 10.14 20.6025 10.14 10.5075 15.645 10.5075 15.645 5.9175"></polygon>
                <rect id="Rectangle-path" x="11.3625" y="11.7375" width="4.275" height="8.8575"></rect>
                <polygon id="Shape" points="0 5.9625 0 26.4975 1.815 26.4975 4.6425 26.4975 10.11 26.4975 10.11 21.8325 4.6425 21.8325 4.6425 5.9625"></polygon>
                <path d="M0,4.7175 L0,0 L18.7875,0 C19.5168206,-2.72224444e-06 20.2161611,0.290231112 20.7311646,0.806641722 C21.2461681,1.32305233 21.5344927,2.02318213 21.5325,2.7525 L21.5325103,10.5 L16.89,10.5 L16.89,4.7175 L0,4.7175 Z" id="Shape"></path>
                <path d="M21.5325,21.825 L21.5325,11.7375 L16.89,11.7375 L16.89,21.825 L11.3625,21.825 L11.3625,26.4975 L18.7875,26.4975 C20.304734,26.4933658 21.5325056,25.2622397 21.5325,23.745 L21.5325,21.825 Z" id="Shape"></path>
            </g>
        </g>
    </g>
</svg>