<?xml version="1.0" encoding="UTF-8"?>
<svg width="116px" height="26px" viewBox="0 0 116 26" version="1.1" xmlns="http://www.w3.org/2000/svg" xmlns:xlink="http://www.w3.org/1999/xlink">
    <!-- Generator: Sketch 51.1 (57501) - http://www.bohemiancoding.com/sketch -->
    <title>DWT logo</title>
    <desc>Created with Sketch.</desc>
    <defs>
        <polygon id="path-1" points="0.0935777789 0.415245725 86.824021 0.415245725 86.824021 12.1713866 0.0935777789 12.1713866"></polygon>
    </defs>
    <g id="Symbols" stroke="none" stroke-width="1" fill="none" fill-rule="evenodd">
        <g id="mobile/nav" transform="translate(-20.000000, -12.000000)">
            <g id="nav">
                <g id="DWT-logo" transform="translate(20.000000, 12.000000)">
                    <polygon id="Fill-1" fill="#DADCDD" points="5.84299912 6.11529145 5.84299912 20.2132739 9.87663347 20.2132739 9.87590301 10.525005 15.2338726 10.525005 15.2338726 6.11529145"></polygon>
                    <polygon id="Fill-2" fill="#E06565" points="11.0687543 20.2019005 15.2324116 20.2019005 15.2324116 11.7006407 11.0687543 11.7006407"></polygon>
                    <polygon id="Fill-3" fill="#221F20" points="0 6.16013722 0 25.8685192 1.77138053 25.8685192 4.52450764 25.8685192 9.85106716 25.8685192 9.85106716 21.3889816 4.52450764 21.3889816 4.52450764 6.16013722"></polygon>
                    <g id="Group-13" transform="translate(0.000000, 0.362919)">
                        <path d="M0,4.60373069 L0,0.0752442114 L18.2696901,0.0752442114 L18.2696901,0.0774037185 C18.2791862,0.0774037185 18.2872213,0.0752442114 18.2967173,0.0752442114 C19.7751809,0.0752442114 20.9731455,1.25721445 20.9731455,2.71416194 L20.9731455,10.1623021 L16.4493683,10.1623021 L16.4493683,4.60373069 L0,4.60373069 Z" id="Fill-4" fill="#221F20"></path>
                        <path d="M20.9741682,21.0256308 L20.9734377,21.0256308 L20.9734377,11.3380817 L16.4489301,11.3380817 L16.4489301,21.0256308 L11.0690465,21.0256308 L11.0690465,25.5051684 L18.2955486,25.5051684 C19.7747427,25.5051684 20.9741682,24.3231982 20.9741682,22.8669705 C20.9741682,22.8583325 20.9727072,22.8496945 20.9727072,22.8403366 L20.9741682,22.8403366 L20.9741682,21.0256308 Z" id="Fill-6" fill="#221F20"></path>
                        <g id="Group-10" transform="translate(28.265823, 13.405405)">
                            <mask id="mask-2" fill="white">
                                <use xlink:href="#path-1"></use>
                            </mask>
                            <g id="Clip-9"></g>
                            <path d="M9.65245846,1.62888874 L9.65245846,0.415245725 L0.0935777789,0.415245725 L0.0935777789,1.62888874 L4.09653255,1.62888874 L4.09653255,12.0953 L5.65023415,12.0953 L5.65023415,1.62888874 L9.65245846,1.62888874 Z M13.4092461,5.07186296 L13.4092461,3.88989271 L13.2704575,3.88989271 C11.931513,3.88989271 11.0695629,4.43480835 10.4997992,5.31444759 L10.4997992,3.95035891 L9.14551491,3.95035891 L9.14551491,12.0953 L10.4997992,12.0953 L10.4997992,6.92256058 C10.8847549,5.86152273 11.6546663,5.02651331 13.05497,5.02651331 C13.1638095,5.02651331 13.347887,5.05746624 13.4092461,5.07186296 Z M21.6145729,8.25785582 C21.6291823,5.17839864 20.0893595,3.87333649 17.6722469,3.87333649 C15.3800439,3.87333649 13.7627918,5.42098328 13.7627918,7.89361895 C13.7627918,10.9126099 15.3486339,12.1557662 17.6722469,12.1557662 C19.6751852,12.1557662 20.9359698,11.2458939 21.429765,9.68313054 L20.1207696,9.45566245 C19.7511537,10.6095591 18.9505627,11.2012641 17.6722469,11.2012641 C16.3026227,11.2012641 15.1477557,10.2906719 15.1024668,8.25785582 C15.1024668,8.24273927 21.6145729,8.25785582 21.6145729,8.25785582 Z M20.2595581,7.3623802 L15.1324159,7.3623802 C15.2251851,5.99757168 16.3026227,4.82927832 17.6722469,4.82927832 C18.9965821,4.82927832 20.0440706,5.42098328 20.2595581,7.3623802 Z M34.4992662,12.0953 L34.4992662,6.96863006 C34.4992662,5.36123691 33.9002839,3.87333649 31.683319,3.87333649 C30.235535,3.87333649 29.4188738,4.55574075 28.9725589,5.26981778 C28.5868728,4.3592256 27.5569155,3.87333649 26.5240363,3.87333649 C25.1091232,3.87333649 24.3538212,4.63204333 24.0002755,5.11793244 L24.0002755,3.93452253 L22.6452607,3.93452253 L22.6452607,12.0953 L24.0002755,12.0953 L24.0002755,6.66485939 C24.2311029,5.81545325 24.8468859,4.95021072 26.1704906,4.95021072 C27.2019089,4.95021072 27.98716,5.7398705 27.98716,6.99886316 L27.98716,12.0953 L29.2800852,12.0953 L29.2800852,6.96863006 C29.2961555,6.04292133 29.9433485,4.95021072 31.3597225,4.95021072 C32.6519172,4.95021072 33.1610521,5.8305698 33.1610521,7.04421281 L33.1610521,12.0953 L34.4992662,12.0953 Z M43.6600428,12.0643471 L43.6600428,11.1544747 C43.6140234,11.1703111 43.2743567,11.1703111 43.1669781,11.1544747 C42.8441121,11.140078 42.704593,10.9126099 42.704593,10.320905 L42.704593,6.42227475 C42.704593,4.67739298 41.5972063,3.87333649 39.5190299,3.87333649 C37.7936688,3.87333649 36.6395322,4.61692678 36.070499,5.69380101 L36.9324491,6.28550597 C37.4408536,5.30005088 38.3948424,4.87462797 39.4876199,4.87462797 C40.857244,4.87462797 41.3656485,5.42098328 41.3510392,6.05803788 C41.3510392,6.48202112 41.0281731,6.72532559 39.1640234,7.01325988 C37.3166743,7.28607761 35.6548637,7.89361895 35.6548637,9.74431657 C35.6548637,11.2919634 36.5621028,12.1716026 38.3634324,12.1716026 C39.5036901,12.1716026 40.5818582,11.9139014 41.4584177,11.0644953 C41.5358471,11.6857135 41.8280336,12.1118562 42.6286245,12.1118562 C42.9668304,12.1118562 43.4146062,12.0953 43.6600428,12.0643471 Z M41.3342384,9.35056644 C41.2590004,10.3972076 40.3342302,11.2012641 38.8104777,11.2012641 C37.5643024,11.2012641 37.0398276,10.7304915 37.0398276,9.74431657 C37.0398276,8.53067356 38.0858552,8.07501755 39.4876199,7.87922224 C40.489089,7.72661707 41.104872,7.57545157 41.3809883,7.301914 C41.3809883,7.72661707 41.3656485,8.7732582 41.3342384,9.35056644 Z M44.73675,2.66113315 L46.1377842,2.66113315 L46.1377842,1.18978895 L44.73675,1.18978895 L44.73675,2.66113315 Z M44.7674296,12.0953 L46.1063741,12.0953 L46.1063741,3.93452253 L44.7674296,3.93452253 L44.7674296,12.0953 Z M54.958894,12.0953 L54.958894,6.86281421 C54.958894,4.78392867 53.8953352,3.87333649 52.0487166,3.87333649 C50.89458,3.87333649 49.9705403,4.37362231 49.3255386,5.25398139 L49.3255386,3.93452253 L47.9851332,3.93452253 L47.9851332,12.0953 L49.3255386,12.0953 L49.3255386,6.77211491 C49.7097639,5.57286861 50.6958932,4.93581401 51.6959015,4.93581401 C52.8807176,4.93581401 53.6031487,5.49656603 53.6031487,7.04421281 L53.6031487,12.0953 L54.958894,12.0953 Z M64.2102484,8.25785582 C64.2255882,5.17839864 62.6872264,3.87333649 60.2708442,3.87333649 C57.9757194,3.87333649 56.3599281,5.42098328 56.3599281,7.89361895 C56.3599281,10.9126099 57.9443093,12.1557662 60.2708442,12.1557662 C62.2708606,12.1557662 63.5323757,11.2458939 64.0254404,9.68313054 L62.7171755,9.45566245 C62.3475596,10.6095591 61.5462382,11.2012641 60.2708442,11.2012641 C58.8997591,11.2012641 57.7448921,10.2906719 57.6988727,8.25785582 C57.6988727,8.24273927 64.2102484,8.25785582 64.2102484,8.25785582 Z M62.8552336,7.3623802 L57.7302827,7.3623802 C57.8223215,5.99757168 58.8997591,4.82927832 60.2708442,4.82927832 C61.592988,4.82927832 62.6390156,5.42098328 62.8552336,7.3623802 Z M73.4579505,12.0953 L73.132893,11.3315543 L68.7216076,11.3315543 L68.7216076,4.83647668 L67.7559313,4.83647668 L67.7559313,12.0953 L73.4579505,12.0953 Z M80.0029276,12.0953 L79.6771397,11.3315543 L75.2658543,11.3315543 L75.2658543,4.83647668 L74.300178,4.83647668 L74.300178,12.0953 L80.0029276,12.0953 Z M86.824021,6.79658933 C86.824021,5.37275428 86.0292737,4.83647668 84.414213,4.83647668 L80.8444247,4.83647668 L80.8444247,12.0953 L81.8108314,12.0953 L81.8108314,8.89059142 L84.4419707,8.89059142 C85.8481181,8.89059142 86.824021,8.30608482 86.824021,6.79658933 Z M85.8283955,6.83474062 C85.8283955,7.74965181 85.2644756,8.15491932 84.2016473,8.15491932 L81.8013354,8.15491932 L81.8013354,5.58078681 L84.3462796,5.58078681 C85.3411746,5.58078681 85.8283955,5.96661875 85.8283955,6.83474062 Z" id="Fill-8" fill="#221F20" mask="url(#mask-2)"></path>
                        </g>
                        <path d="M39.0589042,6.05319188 C39.0589042,2.2906106 37.4891323,0.0749562771 33.5007869,0.0749562771 L28.3758361,0.0749562771 L28.3758361,11.7571701 L33.3795295,11.7571701 C37.7046199,11.7571701 39.0589042,9.57318852 39.0589042,6.05319188 Z M37.443113,6.02223894 C37.443113,8.91957769 36.2422265,10.5435271 33.3481195,10.5435271 L29.9309986,10.5435271 L29.9309986,1.27420258 L33.3641897,1.27420258 C36.1187778,1.27420258 37.443113,3.06515383 37.443113,6.02223894 Z M47.8960843,11.726937 L47.8960843,10.815625 C47.8493344,10.8321812 47.5111286,10.8321812 47.4022891,10.815625 C47.0786926,10.8012282 46.9406345,10.5737602 46.9406345,9.98133537 L46.9406345,6.08342498 C46.9406345,4.33854321 45.8325173,3.53448672 43.7536105,3.53448672 C42.0297102,3.53448672 40.8763041,4.27807701 40.3065405,5.3542314 L41.1684906,5.94665619 C41.6768951,4.96048127 42.6308839,4.53649803 43.7236614,4.53649803 C45.0940159,4.53649803 45.6024204,5.0821335 45.5856197,5.71918811 C45.5856197,6.14389118 45.2634841,6.38647581 43.4000648,6.6744101 C41.5534463,6.94794767 39.8909052,7.55404934 39.8909052,9.4054668 C39.8909052,10.9531136 40.7988747,11.8327528 42.6002043,11.8327528 C43.7382707,11.8327528 44.8157083,11.5743318 45.6944592,10.7249257 C45.7704276,11.3475836 46.0640751,11.7715668 46.8639355,11.7715668 C47.2028719,11.7715668 47.6491867,11.7571701 47.8960843,11.726937 Z M45.5710104,9.01027699 C45.493581,10.0569181 44.5702717,10.8616944 43.0465192,10.8616944 C41.7988829,10.8616944 41.2758691,10.3909219 41.2758691,9.4054668 C41.2758691,8.19182378 42.3233577,7.73616778 43.7236614,7.53893279 C44.7236696,7.38704746 45.3401831,7.23660179 45.6170297,6.96378406 C45.6170297,7.38704746 45.6024204,8.43512826 45.5710104,9.01027699 Z M55.6521744,3.59495292 L54.2818198,3.59495292 L51.9881559,9.19311526 C51.9735466,9.25358146 51.5257708,10.3304557 51.5111615,10.4521079 C51.5111615,10.3304557 51.0809169,9.26869801 51.0648467,9.19311526 L48.8179326,3.59495292 L47.3862189,3.59495292 L50.7565899,11.7571701 L52.1875732,11.7571701 L55.6521744,3.59495292 Z M56.5469955,2.32012387 L57.9465687,2.32012387 L57.9465687,0.849499505 L56.5469955,0.849499505 L56.5469955,2.32012387 Z M56.5769446,11.7571701 L57.9173501,11.7571701 L57.9173501,3.59495292 L56.5769446,3.59495292 L56.5769446,11.7571701 Z M66.2001063,9.42058335 C66.2001063,8.20694033 65.536843,7.43383678 63.9816804,7.20564886 C63.3805068,7.11422972 62.6580757,7.03864697 62.056902,6.93355096 C60.9349059,6.75071269 60.425771,6.40159236 60.425771,5.76525759 C60.425771,4.91513162 61.3191312,4.52066164 62.4272484,4.52066164 C63.3658974,4.52066164 64.089059,4.80859593 64.5207645,5.47588364 C64.5974635,5.58313916 64.6748929,5.70335172 64.7209122,5.84012051 L65.8911191,5.40030089 C65.7983499,5.233299 65.6142724,4.97559782 65.5514523,4.88489852 C65.0445088,4.08156186 64.0737192,3.53448672 62.5192871,3.53448672 C60.2877129,3.53448672 59.0561469,4.50626493 59.0561469,5.76525759 C59.0561469,7.00769403 60.0415458,7.62963209 61.3344709,7.82758691 C62.0737027,7.94923915 62.7040951,7.9945888 63.289929,8.10184432 C64.4433351,8.29763963 64.7676621,8.76769235 64.7676621,9.4356999 C64.7676621,10.4974576 63.6741542,10.815625 62.5046778,10.815625 C61.2124831,10.815625 60.3797516,10.3304557 60.0254755,9.3147675 C59.9787257,9.22334836 59.949507,9.11753251 59.9348977,9.01027699 L58.7785697,9.465933 C58.7939095,9.55591246 58.8399289,9.69412092 58.8713389,9.78554005 C59.4096925,11.1654651 60.5945087,11.8327528 62.5506972,11.8327528 C64.7523223,11.8327528 66.2001063,11.0445327 66.2001063,9.42058335 Z M84.9986539,0.0749562771 L83.4902412,0.0749562771 L80.8123521,7.65986519 C80.7816726,7.79735381 80.1651591,9.51128265 80.133749,9.78554005 C80.133749,9.51128265 79.5961259,7.79735381 79.5647159,7.62963209 L77.2717825,0.0749562771 L75.7787096,0.0749562771 L73.607764,7.62963209 C73.576354,7.79735381 73.0701409,9.48176938 73.0533402,9.78554005 C73.0219301,9.465933 72.4054167,7.78223726 72.376198,7.61523538 L69.7896172,0.0749562771 L68.2045055,0.0749562771 L72.12857,11.7571701 L73.7772322,11.7571701 L76.1015756,3.83825739 C76.1461341,3.68565222 76.5325507,2.38059007 76.54716,2.2301444 C76.5624998,2.39714629 76.9635257,3.67053567 76.9803265,3.822421 L79.3499588,11.7571701 L80.9810898,11.7571701 L84.9986539,0.0749562771 Z M89.4318533,4.73229334 L89.4318533,3.54960327 L89.2937952,3.54960327 C87.9548506,3.54960327 87.0914396,4.09523874 86.5224064,4.97559782 L86.5224064,3.6107893 L85.1688525,3.6107893 L85.1688525,11.7571701 L86.5224064,11.7571701 L86.5224064,6.58299096 C86.9080926,5.52195312 87.6772735,4.68766353 89.0775772,4.68766353 C89.1864166,4.68766353 89.3697637,4.71789663 89.4318533,4.73229334 Z M90.5706501,2.32012387 L91.9716843,2.32012387 L91.9716843,0.849499505 L90.5706501,0.849499505 L90.5706501,2.32012387 Z M90.6013297,11.7571701 L91.9402742,11.7571701 L91.9402742,3.59495292 L90.6013297,3.59495292 L90.6013297,11.7571701 Z M100.91113,11.1956982 L100.91113,3.59495292 L99.5729155,3.59495292 L99.5729155,4.85394558 C99.1565498,4.15642477 98.0791121,3.53448672 96.8789562,3.53448672 C94.8321899,3.53448672 93.1528481,4.73229334 93.1528481,7.64474864 C93.1528481,10.5276907 94.5845618,11.7874032 96.8643469,11.7874032 C98.3705682,11.7874032 99.2799986,11.1049989 99.6035951,10.4672245 C99.6035951,10.5276907 99.6035951,11.3929332 99.5729155,11.437563 C99.5415055,13.0003264 98.6021259,13.5920313 97.0177448,13.5920313 C95.6473902,13.5920313 94.7087411,13.0910257 94.5232027,12.1055706 L93.7072719,12.5605067 C93.890619,13.8353358 95.0622867,14.5630897 97.1243928,14.5630897 C100.00316,14.5630897 100.91113,13.1212588 100.91113,11.1956982 Z M99.5575757,8.66259634 C99.5415055,9.82945003 98.633536,10.8321812 97.1243928,10.8321812 C95.6619995,10.8321812 94.5085934,9.9518221 94.5085934,7.64474864 C94.5085934,5.52195312 95.4771915,4.50626493 97.0951742,4.50626493 C98.4019782,4.50626493 99.5415055,5.53634984 99.5575757,6.644177 C99.5729155,6.69024649 99.5729155,7.29706799 99.5729155,7.72177106 C99.5729155,8.08456826 99.5729155,8.6014103 99.5575757,8.66259634 Z M109.7169,11.7571701 L109.7169,6.59954719 C109.7169,4.52066164 108.746841,3.53448672 106.792113,3.53448672 C105.437098,3.53448672 104.529129,4.24640424 104.098884,4.88489852 L104.098884,0.0605595629 L102.743139,0.0605595629 L102.743139,11.7571701 L104.098884,11.7571701 L104.098884,6.38647581 C104.313641,5.49172002 105.191662,4.59696423 106.453907,4.59696423 C107.792852,4.59696423 108.378686,5.34055452 108.378686,6.69024649 L108.378686,11.7571701 L109.7169,11.7571701 Z M115.058799,4.82371248 L115.058799,3.76123497 L113.335629,3.76123497 L113.335629,1.04673449 L111.996685,1.57725341 L111.996685,3.76123497 L110.593459,3.76123497 L110.593459,4.82371248 L111.996685,4.82371248 L111.996685,9.45081645 C111.996685,11.1496287 112.518237,11.7874032 113.980631,11.7874032 C114.13549,11.7874032 114.752003,11.7874032 114.873991,11.7715668 L114.873991,10.6946926 L114.304227,10.6946926 C113.642425,10.6946926 113.335629,10.3304557 113.335629,9.3752337 L113.335629,4.82371248 L115.058799,4.82371248 Z" id="Fill-11" fill="#221F20"></path>
                    </g>
                </g>
            </g>
        </g>
    </g>
</svg>